<svg xmlns="http://www.w3.org/2000/svg" xmlns:xlink="http://www.w3.org/1999/xlink" width="525" height="525" viewBox="0 0 525 525"><defs><clipPath id="b"><rect width="525" height="525"/></clipPath></defs><g id="a" clip-path="url(#b)"><rect width="525" height="525" fill="rgba(255,255,255,0)"/><g transform="translate(105 245)" fill="rgba(0,0,0,0.5)"><path d="M224,0,448,280H0Z" stroke="none"/><path d="M 223.9999542236328 1.600830078125 L 2.0806884765625 279 L 445.9193420410156 279 L 223.9999542236328 1.600830078125 M 223.9999542236328 0 L 448 280 L 3.0517578125e-05 280 L 223.9999542236328 0 Z" stroke="none" fill="rgba(112,112,112,0)"/></g><g transform="translate(-39 345)" fill="#9c7171"><path d="M144,0,288,180H0Z" stroke="none"/><path d="M 144 1.600753784179688 L 2.080596923828125 179 L 285.9194030761719 179 L 144 1.600753784179688 M 144 0 L 288 180 L 0 180 L 144 0 Z" stroke="none" fill="rgba(112,112,112,0)"/></g><circle cx="50" cy="50" r="50" transform="translate(350 75)" fill="rgba(86,0,0,0.5)"/><text transform="translate(108 399)" fill="#560000" font-size="650" font-family="DavidCLM-MediumItalic, David CLM MediumItalic" font-weight="500" font-style="italic"><tspan x="0" y="0">L</tspan></text><text transform="translate(40 483)" font-size="650" font-family="DavidCLM-MediumItalic, David CLM MediumItalic" font-weight="500" font-style="italic"><tspan x="0" y="0">S</tspan></text><rect width="48.75" height="90" transform="translate(165.96 248)" fill="#560000"/></g></svg>